<?xml version="1.0" encoding="UTF-8"?>
<svg width="53px" height="61px" viewBox="0 0 53 61" version="1.1" xmlns="http://www.w3.org/2000/svg" xmlns:xlink="http://www.w3.org/1999/xlink">
    <!-- Generator: Sketch 52.6 (67491) - http://www.bohemiancoding.com/sketch -->
    <title>Group 31</title>
    <desc>Created with Sketch.</desc>
    <g id="Page-1" stroke="none" stroke-width="1" fill="none" fill-rule="evenodd">
        <g id="Desktop-HD-Copy-3" transform="translate(-726.000000, -881.000000)">
            <g id="Group-31" transform="translate(722.000000, 881.000000)">
                <polygon id="Polygon" fill="#C29049" points="30.5 0 56.9137748 15.25 56.9137748 45.75 30.5 61 4.08622518 45.75 4.08622518 15.25"></polygon>
                <g id="noun_Wrench_978259" transform="translate(19.000000, 18.000000)" fill="#FFFFFF">
                    <path d="M23.8358769,4.58943025 C23.7407777,4.19438536 23.2724817,4.12119557 23.0300838,4.36266188 L19.1511166,8.24232072 L16.4763393,7.52722046 L15.7608453,4.85189364 L19.6395125,0.973434643 C19.9401099,0.672276651 19.7244118,0.243336483 19.4121144,0.168346943 C17.332832,-0.331683308 15.2193499,0.306927613 13.7715622,1.75542556 C12.0876764,3.43909071 11.5617809,5.96083896 12.4317735,8.17992942 L0.725272653,19.8854966 C-1.49770852,22.1060869 1.89466275,25.4971139 4.11584394,23.2750238 L15.8229448,11.5709564 C17.6634292,12.2914559 20.2932069,12.1843708 22.2479904,10.2310433 C23.712878,8.76664758 24.3209728,6.60514908 23.8358769,4.58943025 Z" id="Path"></path>
                </g>
            </g>
        </g>
    </g>
</svg>