<?xml version="1.0" encoding="UTF-8"?>
<svg width="53px" height="61px" viewBox="0 0 53 61" version="1.1" xmlns="http://www.w3.org/2000/svg" xmlns:xlink="http://www.w3.org/1999/xlink">
    <!-- Generator: Sketch 52.6 (67491) - http://www.bohemiancoding.com/sketch -->
    <title>Group 19</title>
    <desc>Created with Sketch.</desc>
    <g id="Page-1" stroke="none" stroke-width="1" fill="none" fill-rule="evenodd">
        <g id="Desktop-HD-Copy-2" transform="translate(-795.000000, -1171.000000)">
            <g id="Group-19" transform="translate(791.000000, 1171.000000)">
                <g id="Group-31-Copy-4">
                    <polygon id="Polygon" fill="#C29049" points="30.5 0 56.9137748 15.25 56.9137748 45.75 30.5 61 4.08622518 45.75 4.08622518 15.25"></polygon>
                    <g id="noun_car-cleaning_1852704" transform="translate(16.000000, 24.000000)" fill="#FFFFFF" fill-rule="nonzero">
                        <path d="M22.0586889,0.0126666667 L5.31312222,0.0126666667 L3.87343333,6.34233333 L0.482688889,6.34233333 L0.482688889,8.67433333 L2.98055556,9.04366667 L2.09283333,11.3393333 L2.09283333,21 L5.95724444,21 L6.17152222,18.342 L21.2002889,18.3363333 L21.4145667,21 L25.2789778,21 L25.2789778,11.339 L24.3912556,9.04333333 L26.8891222,8.674 L26.8891222,6.342 L23.4983778,6.342 L22.0586889,0.0126666667 Z M6.58815556,1.67833333 L20.7833333,1.67833333 L22.2230222,8.008 L16.3415,8.008 L5.14846667,8.008 L6.58815556,1.67833333 Z M5.47391111,15.0036667 C4.49596667,15.0036667 3.70265556,14.1833333 3.70265556,13.1713333 C3.70265556,12.1593333 4.49564444,11.339 5.47391111,11.339 C6.45217778,11.339 7.24516667,12.1593333 7.24516667,13.1713333 C7.24516667,14.183 6.45185556,15.0036667 5.47391111,15.0036667 Z M17.8720556,16.336 L9.49943333,16.336 L9.17721111,14.004 L18.1939556,14.004 L17.8720556,16.336 Z M21.8975778,15.0036667 C20.9193111,15.0036667 20.1263222,14.1833333 20.1263222,13.1713333 C20.1263222,12.1593333 20.9193111,11.339 21.8975778,11.339 C22.8755222,11.339 23.6688333,12.1593333 23.6688333,13.1713333 C23.6688333,14.183 22.8755222,15.0036667 21.8975778,15.0036667 Z" id="Shape"></path>
                    </g>
                </g>
                <path d="M18.321,25.9396667 L19.5386778,22.7296667 L22.6416778,21.47 L19.5386778,20.2103333 L18.321,17 L17.1033222,20.2103333 L14,21.4703333 L17.1033222,22.729 L18.321,25.9396667 Z M17.8486222,20.9813333 L18.321,19.736 L18.7933778,20.9813333 L19.9968778,21.47 L18.7933778,21.9586667 L18.321,23.2036667 L17.8486222,21.958 L16.6454444,21.4696667 L17.8486222,20.9813333 Z" id="Shape" fill="#FFFFFF" fill-rule="nonzero"></path>
                <g id="noun_setting_655352" transform="translate(30.000000, 16.000000)" fill="#FFFFFF" fill-rule="nonzero">
                    <g id="Group">
                        <path d="M5.72641618,0.0597049451 C5.49639618,0.0629521978 5.29864141,0.269901099 5.25908664,0.461490659 L5.00056391,1.93985604 C4.44659505,2.15583132 3.93541527,2.45395714 3.47925709,2.82584505 L2.13195595,2.28497967 C1.92440595,2.20151868 1.66507505,2.29338626 1.55027982,2.49102363 L0.222864982,4.74205385 C0.110456118,4.93813681 0.152322482,5.21438736 0.317325209,5.36533681 L1.38621732,6.3491967 C1.31787982,6.71463791 1.27187073,7.09091209 1.27187073,7.4773022 C1.27187073,7.86267033 1.31821868,8.23567582 1.38621732,8.60022527 L0.317325209,9.58409341 C0.149926573,9.73556044 0.1078518,10.0154835 0.222864982,10.2125275 L1.55027982,12.4635495 C1.66658482,12.6594066 1.92549573,12.7488297 2.13195595,12.6644505 L3.47925709,12.1287363 C3.93486164,12.4998956 4.44745414,12.7938791 5.00056391,13.0095659 L5.25908664,14.4879396 C5.29819755,14.7130714 5.50564414,14.8936978 5.72641618,14.8948681 L8.27187073,14.8948681 C8.4943005,14.8965165 8.70476823,14.7147527 8.74417186,14.4879396 L9.00269459,13.0095659 C9.55580595,12.7938791 10.0683969,12.4998956 10.5240014,12.1287363 L11.8713025,12.6644505 C12.0765791,12.7461429 12.3320537,12.6571978 12.4480071,12.4635495 L13.7754219,10.2125275 C13.8915932,10.0166044 13.8517616,9.7368956 13.6859332,9.58409341 L12.6170412,8.59508242 C12.68367,8.23054945 12.7264162,7.8588956 12.7264162,7.4773022 C12.7264162,7.09468681 12.6840153,6.71977088 12.6170412,6.3543478 L13.6859332,5.36533681 C13.849361,5.21306209 13.8889937,4.93702253 13.7754219,4.74205385 L12.4480071,2.49102363 C12.3335507,2.29564121 12.0776625,2.20421868 11.8713025,2.28497967 L10.5240014,2.82584505 C10.0678432,2.45395714 9.55666345,2.15583132 9.00269459,1.93985604 L8.74417186,0.461490659 C8.70271118,0.236517033 8.49292118,0.0580483516 8.27187073,0.0597049451 L5.72641618,0.0597049451 Z M6.12911505,1.04871593 L7.87414345,1.04871593 L8.10780823,2.37254835 C8.13968686,2.54837967 8.2709655,2.70088516 8.43593323,2.75372967 C9.07227618,2.96098681 9.64925595,3.30700879 10.1411889,3.75304286 C10.2718789,3.87091154 10.4670357,3.90598681 10.6284048,3.84061154 L11.841473,3.35640824 L12.7512741,4.90688901 L11.7818139,5.80318022 C11.6529948,5.92282912 11.5952735,6.11874231 11.6376378,6.29253462 C11.7271216,6.66980769 11.7718707,7.06645385 11.7718707,7.4773022 C11.7718707,7.88812088 11.7271216,8.28478022 11.6376378,8.66203846 C11.5971841,8.83435714 11.6546955,9.02751099 11.7818139,9.14624176 L12.7562457,10.0476923 L11.841473,11.593022 L10.6284048,11.1088187 C10.4670357,11.0434451 10.2718789,11.078522 10.1411889,11.1963791 C9.64925277,11.6424231 9.07227141,11.9884451 8.43593323,12.1956923 C8.2709655,12.2485385 8.13968686,12.401044 8.10780823,12.5768736 L7.87414345,13.9058571 L6.12911505,13.9058571 L5.89545027,12.5768736 C5.86357164,12.401044 5.732293,12.2485385 5.56732527,12.1956923 C4.93098868,11.9884451 4.35400414,11.6424231 3.86206959,11.1963791 C3.73137959,11.078522 3.53622277,11.0434451 3.37485368,11.1088187 L2.15681391,11.593022 L1.24701277,10.0476923 L2.22144459,9.1514011 C2.35030664,9.03377473 2.40986868,8.84042308 2.37059232,8.6671978 C2.27960505,8.28547253 2.22641618,7.8873956 2.22641618,7.4773022 C2.22641618,7.06718242 2.27960345,6.66911538 2.37059232,6.28738352 C2.41178414,6.11267637 2.35200573,5.91654066 2.22144459,5.79802912 L1.24701277,4.90173791 L2.1617855,3.35640824 L3.37485368,3.84061154 C3.53622277,3.90598681 3.73137959,3.87091154 3.86206959,3.75304286 C4.35400255,3.30700879 4.93098391,2.96098681 5.56732527,2.75372967 C5.732293,2.70088516 5.86357164,2.54837967 5.89545027,2.37254835 L6.12911505,1.04871593 Z M6.99914345,3.68607857 C4.98393732,3.68607857 3.34005255,5.3893022 3.34005255,7.4773022 C3.34005255,9.56525275 4.98393891,11.2684945 6.99914345,11.2684945 C9.01434959,11.2684945 10.6582344,9.56525275 10.6582344,7.4773022 C10.6582344,5.38930385 9.01435118,3.68607857 6.99914345,3.68607857 Z M6.99914345,4.67508956 C8.49847664,4.67508956 9.70368891,5.92379835 9.70368891,7.4773022 C9.70368891,9.03075824 8.49847823,10.2794835 6.99914345,10.2794835 C5.49981027,10.2794835 4.294598,9.03075824 4.294598,7.4773022 C4.294598,5.9237967 5.49981186,4.67508956 6.99914345,4.67508956 Z" id="Shape"></path>
                    </g>
                </g>
                <path d="M32.2697037,24 L33.3687614,24 C33.4524667,24.4096126 33.535553,24.7216597 33.6180202,24.9361413 C33.7004874,25.1506229 33.8738676,25.4626699 34.1381606,25.8722826 L33,25.8722826 C32.7811378,25.5092338 32.6290982,25.218473 32.5438814,25 C32.4586646,24.781527 32.367272,24.4481937 32.2697037,24 Z" id="Rectangle" fill="#C29049"></path>
                <path d="M34.3440041,24 L38.0639464,24 L38.4937134,25.8094788 L36.3380259,25.7407835 L35.3348459,25.6823991 C35.0120975,25.3781613 34.793236,25.1198656 34.6782615,24.907512 C34.5632869,24.6951585 34.4518678,24.3926544 34.3440041,24 Z" id="Rectangle" fill="#C29049"></path>
                <path d="M36.7931133,25.7509576 L37.9531848,25.6349098 L38.5066292,25.8123513 C38.1791774,26.005892 37.9226116,26.129429 37.7369319,26.1829622 C37.5512521,26.2364954 37.2789086,26.2654478 36.9199015,26.2698195 L36.7931133,25.7509576 Z" id="Rectangle" fill="#C29049"></path>
                <path d="M36,27.1267363 C36.55447,27.2030554 36.9839324,27.2232325 37.2883873,27.1872676 C37.5928422,27.1513027 38.0729504,27.0366934 38.7287122,26.8434399 L39,28 L36.2762674,28.6673436 L36,27.1267363 Z" id="Rectangle" fill="#C29049"></path>
            </g>
        </g>
    </g>
</svg>