<?xml version="1.0" encoding="UTF-8"?>
<svg width="19px" height="19px" viewBox="0 0 19 19" version="1.1" xmlns="http://www.w3.org/2000/svg" xmlns:xlink="http://www.w3.org/1999/xlink">
    <!-- Generator: Sketch 52.6 (67491) - http://www.bohemiancoding.com/sketch -->
    <title>noun_Phone_373695</title>
    <desc>Created with Sketch.</desc>
    <g id="Page-1" stroke="none" stroke-width="1" fill="none" fill-rule="evenodd">
        <g id="Desktop-HD" transform="translate(-1171.000000, -10.000000)" fill="#464C47" fill-rule="nonzero">
            <g id="noun_Phone_373695" transform="translate(1171.000000, 10.000000)">
                <path d="M17.1633333,16.6777778 C17.9655556,15.8544444 17.9655556,14.7566667 17.1633333,13.9544444 L14.9677778,11.7588889 C14.5877778,11.3577778 14.1233333,11.1466667 13.6166667,11.1466667 C13.1311111,11.1466667 12.6666667,11.3577778 12.2655556,11.7588889 L10.9988889,13.0255556 C10.8933333,12.9622222 10.7877778,12.92 10.6822222,12.8566667 C10.5344444,12.7933333 10.4077778,12.7088889 10.2811111,12.6455556 C9.09888889,11.9066667 8.02222222,10.9144444 7.00888889,9.66888889 C6.50222222,9.03555556 6.16444444,8.50777778 5.93222222,7.95888889 C6.24888889,7.66333333 6.56555556,7.34666667 6.86111111,7.05111111 C6.96666667,6.94555556 7.09333333,6.81888889 7.19888889,6.71333333 C7.6,6.31222222 7.83222222,5.82666667 7.83222222,5.34111111 C7.83222222,4.85555556 7.62111111,4.39111111 7.19888889,3.96888889 L6.12222222,2.87111111 C5.99555556,2.74444444 5.86888889,2.61777778 5.76333333,2.49111111 C5.53111111,2.23777778 5.27777778,1.98444444 5.02444444,1.75222222 C4.64444444,1.37222222 4.18,1.16111111 3.69444444,1.16111111 C3.20888889,1.16111111 2.74444444,1.37222222 2.34333333,1.75222222 L0.971111111,3.12444444 C0.464444444,3.63111111 0.168888889,4.24333333 0.105555556,4.96111111 C0.0211111111,6.12222222 0.358888889,7.19888889 0.612222222,7.91666667 C1.24555556,9.64777778 2.21666667,11.2733333 3.65222222,13.0044444 C5.40444444,15.0944444 7.49444444,16.72 9.88,17.8811111 C10.7877778,18.3244444 12.0122222,18.8311111 13.3844444,18.9155556 C13.4688889,18.9155556 13.5533333,18.9155556 13.6377778,18.9155556 C14.5455556,18.9155556 15.3266667,18.5777778 15.9177778,17.9233333 C15.9177778,17.9233333 15.9388889,17.9022222 15.9388889,17.9022222 C16.15,17.6488889 16.3822222,17.4166667 16.6355556,17.1844444 C16.8255556,17.0366667 16.9944444,16.8677778 17.1633333,16.6777778 Z M15.9177778,16.4455556 C15.6644444,16.6988889 15.39,16.9522222 15.1577778,17.2477778 C14.7566667,17.6911111 14.2711111,17.8811111 13.6588889,17.8811111 C13.5955556,17.8811111 13.5322222,17.8811111 13.4688889,17.8811111 C12.2866667,17.7755556 11.1888889,17.3322222 10.3444444,16.9311111 C8.08555556,15.8333333 6.12222222,14.2922222 4.47555556,12.3288889 C3.12444444,10.7033333 2.21666667,9.18333333 1.60444444,7.55777778 C1.22444444,6.56555556 1.09777778,5.78444444 1.16111111,5.06666667 C1.20333333,4.60222222 1.39333333,4.22222222 1.71,3.88444444 L3.06111111,2.53333333 C3.25111111,2.34333333 3.46222222,2.23777778 3.67333333,2.23777778 C3.92666667,2.23777778 4.13777778,2.38555556 4.28555556,2.53333333 C4.53888889,2.76555556 4.75,2.99777778 5.00333333,3.25111111 C5.13,3.37777778 5.25666667,3.50444444 5.38333333,3.63111111 L6.46,4.70777778 C6.67111111,4.91888889 6.77666667,5.13 6.77666667,5.34111111 C6.77666667,5.55222222 6.67111111,5.76333333 6.46,5.97444444 C6.35444444,6.08 6.22777778,6.20666667 6.12222222,6.31222222 C5.78444444,6.65 5.46777778,6.96666667 5.13,7.28333333 C5.13,7.28333333 5.10888889,7.30444444 5.10888889,7.30444444 C4.77111111,7.64222222 4.83444444,7.98 4.89777778,8.19111111 C4.89777778,8.21222222 4.89777778,8.21222222 4.91888889,8.23333333 C5.19333333,8.90888889 5.59444444,9.56333333 6.20666667,10.3233333 C7.30444444,11.6744444 8.46555556,12.73 9.73222222,13.5322222 C9.90111111,13.6377778 10.07,13.7222222 10.2177778,13.8066667 C10.3655556,13.87 10.4922222,13.9544444 10.6188889,14.0177778 C10.64,14.0177778 10.64,14.0388889 10.6611111,14.0388889 C10.7877778,14.1022222 10.9144444,14.1444444 11.0411111,14.1444444 C11.3577778,14.1444444 11.5688889,13.9333333 11.6322222,13.87 L13.0044444,12.4977778 C13.1311111,12.3711111 13.3633333,12.2022222 13.6166667,12.2022222 C13.87,12.2022222 14.06,12.3711111 14.2077778,12.4977778 L16.4033333,14.6933333 C16.91,15.2 16.6777778,15.6644444 16.3822222,15.96 C16.2555556,16.1288889 16.0866667,16.2766667 15.9177778,16.4455556 Z M9.83777778,4.13777778 C9.88,3.84222222 10.1544444,3.65222222 10.45,3.71555556 C11.7166667,3.92666667 12.8566667,4.51777778 13.7644444,5.44666667 C14.6722222,6.37555556 15.2633333,7.51555556 15.4955556,8.76111111 C15.5377778,9.05666667 15.3477778,9.33111111 15.0733333,9.37333333 C15.0522222,9.37333333 15.01,9.37333333 14.9888889,9.37333333 C14.7355556,9.37333333 14.5033333,9.18333333 14.4611111,8.93 C14.2922222,7.89555556 13.7855556,6.92444444 13.0255556,6.18555556 C12.2655556,5.42555556 11.3155556,4.94 10.2811111,4.75 C9.96444444,4.70777778 9.77444444,4.43333333 9.83777778,4.13777778 Z M17.86,8.57111111 C17.5433333,6.71333333 16.6566667,5.02444444 15.3266667,3.67333333 C13.9755556,2.32222222 12.2866667,1.45666667 10.4288889,1.14 C10.1333333,1.09777778 9.94333333,0.823333333 10.0066667,0.527777778 C10.07,0.232222222 10.3233333,0.0422222222 10.6188889,0.105555556 C12.6666667,0.443333333 14.5666667,1.41444444 16.0655556,2.91333333 C17.5644444,4.41222222 18.5566667,6.31222222 18.8944444,8.38111111 C18.9366667,8.67666667 18.7466667,8.95111111 18.4722222,8.99333333 C18.4511111,8.99333333 18.4088889,8.99333333 18.3877778,8.99333333 C18.1344444,9.01444444 17.9022222,8.82444444 17.86,8.57111111 Z" id="Shape"></path>
            </g>
        </g>
    </g>
</svg>