<?xml version="1.0" encoding="UTF-8"?>
<svg width="53px" height="61px" viewBox="0 0 53 61" version="1.1" xmlns="http://www.w3.org/2000/svg" xmlns:xlink="http://www.w3.org/1999/xlink">
    <!-- Generator: Sketch 52.6 (67491) - http://www.bohemiancoding.com/sketch -->
    <title>Group 31 Copy 2</title>
    <desc>Created with Sketch.</desc>
    <g id="Page-1" stroke="none" stroke-width="1" fill="none" fill-rule="evenodd">
        <g id="Desktop-HD-Copy-2" transform="translate(-694.000000, -1272.000000)">
            <g id="Group-31-Copy-2" transform="translate(690.000000, 1272.000000)">
                <polygon id="Polygon" fill="#C29049" points="30.5 0 56.9137748 15.25 56.9137748 45.75 30.5 61 4.08622518 45.75 4.08622518 15.25"></polygon>
                <g id="noun_car-cleaning_1852704" transform="translate(16.000000, 15.000000)" fill="#FFFFFF" fill-rule="nonzero">
                    <path d="M22.0586889,9.01266667 L5.31312222,9.01266667 L3.87343333,15.3423333 L0.482688889,15.3423333 L0.482688889,17.6743333 L2.98055556,18.0436667 L2.09283333,20.3393333 L2.09283333,30 L5.95724444,30 L6.17152222,27.342 L21.2002889,27.3363333 L21.4145667,30 L25.2789778,30 L25.2789778,20.339 L24.3912556,18.0433333 L26.8891222,17.674 L26.8891222,15.342 L23.4983778,15.342 L22.0586889,9.01266667 Z M6.58815556,10.6783333 L20.7833333,10.6783333 L22.2230222,17.008 L16.3415,17.008 L5.14846667,17.008 L6.58815556,10.6783333 Z M5.47391111,24.0036667 C4.49596667,24.0036667 3.70265556,23.1833333 3.70265556,22.1713333 C3.70265556,21.1593333 4.49564444,20.339 5.47391111,20.339 C6.45217778,20.339 7.24516667,21.1593333 7.24516667,22.1713333 C7.24516667,23.183 6.45185556,24.0036667 5.47391111,24.0036667 Z M17.8720556,25.336 L9.49943333,25.336 L9.17721111,23.004 L18.1939556,23.004 L17.8720556,25.336 Z M21.8975778,24.0036667 C20.9193111,24.0036667 20.1263222,23.1833333 20.1263222,22.1713333 C20.1263222,21.1593333 20.9193111,20.339 21.8975778,20.339 C22.8755222,20.339 23.6688333,21.1593333 23.6688333,22.1713333 C23.6688333,23.183 22.8755222,24.0036667 21.8975778,24.0036667 Z" id="Shape"></path>
                    <path d="M8.68002222,8.49466667 L9.82971111,5.43733333 L12.7848111,4.24833333 L9.82971111,3.05833333 L8.68002222,0 L7.53033333,3.05833333 L4.57491111,4.24766667 L7.53033333,5.437 L8.68002222,8.49466667 Z M8.2766,3.83 L8.6797,2.75733333 L9.0828,3.82966667 L10.1203556,4.24733333 L9.0828,4.66466667 L8.6797,5.73766667 L8.2766,4.66466667 L7.23936667,4.24766667 L8.2766,3.83 Z" id="Shape"></path>
                    <path d="M2.5346,9.91033333 L3.48,8.45066667 L4.89101111,7.47233333 L3.48,6.49433333 L2.5346,5.03433333 L1.58952222,6.49433333 L0.178188889,7.47233333 L1.5892,8.45033333 L2.5346,9.91033333 Z M2.28584444,7.215 L2.5346,6.83033333 L2.78367778,7.215 L3.15584444,7.47266667 L2.78367778,7.73066667 L2.5346,8.11466667 L2.28552222,7.73033333 L1.91432222,7.47266667 L2.28584444,7.215 Z" id="Shape"></path>
                    <path d="M23.8566889,10.2786667 L25.0743667,7.06866667 L28.1773667,5.809 L25.0743667,4.54933333 L23.8566889,1.339 L22.6390111,4.54933333 L19.5356889,5.80933333 L22.6390111,7.068 L23.8566889,10.2786667 Z M23.3843111,5.32033333 L23.8566889,4.075 L24.3290667,5.32033333 L25.5325667,5.809 L24.3290667,6.29766667 L23.8566889,7.54266667 L23.3843111,6.297 L22.1811333,5.80866667 L23.3843111,5.32033333 Z" id="Shape"></path>
                </g>
            </g>
        </g>
    </g>
</svg>