<?xml version="1.0" encoding="UTF-8"?>
<svg width="21px" height="21px" viewBox="0 0 21 21" version="1.1" xmlns="http://www.w3.org/2000/svg" xmlns:xlink="http://www.w3.org/1999/xlink">
    <!-- Generator: Sketch 52.6 (67491) - http://www.bohemiancoding.com/sketch -->
    <title>noun_Question_1015737</title>
    <desc>Created with Sketch.</desc>
    <g id="Page-1" stroke="none" stroke-width="1" fill="none" fill-rule="evenodd">
        <g id="Desktop-HD-Copy-3" transform="translate(-171.000000, -3129.000000)" fill="#464C47" fill-rule="nonzero">
            <g id="noun_Question_1015737" transform="translate(171.000000, 3129.000000)">
                <path d="M10.5,0 C4.70101013,3.88578059e-16 7.2858386e-16,4.70101013 0,10.5 C-7.2858386e-16,16.2989899 4.70101013,21 10.5,21 C16.2989899,21 21,16.2989899 21,10.5 C21,7.71522686 19.8937532,5.04451077 17.9246212,3.0753788 C15.9554892,1.10624682 13.2847731,9.71445147e-16 10.5,0 Z M11.8125,18.046875 L9.1875,18.046875 L9.1875,15.421875 L11.8125,15.421875 L11.8125,18.046875 Z M12.5146875,12.005 C12.0594839,12.2632136 11.7880441,12.7553569 11.8125,13.278125 L11.8125,13.453125 L9.1875,13.453125 L9.1875,13.278125 C9.16550082,11.7534348 10.0074472,10.3473674 11.361875,9.646875 C12.0396282,9.31686667 12.4694409,8.62882654 12.46875,7.875 C12.4411551,6.79932687 11.5756731,5.93384486 10.5,5.90625 C9.4126894,5.90625 8.53125,6.7876894 8.53125,7.875 L5.90625,7.875 C5.90625,5.33794193 7.96294193,3.28125 10.5,3.28125 C13.0232676,3.3142381 15.0607619,5.35173236 15.09375,7.875 C15.1012217,9.63348424 14.0980391,11.2399377 12.5146875,12.005 Z" id="Shape"></path>
            </g>
        </g>
    </g>
</svg>