<?xml version="1.0" encoding="UTF-8"?>
<svg width="21px" height="21px" viewBox="0 0 21 21" version="1.1" xmlns="http://www.w3.org/2000/svg" xmlns:xlink="http://www.w3.org/1999/xlink">
    <!-- Generator: Sketch 52.6 (67491) - http://www.bohemiancoding.com/sketch -->
    <title>noun_clock_162673</title>
    <desc>Created with Sketch.</desc>
    <g id="Page-1" stroke="none" stroke-width="1" fill="none" fill-rule="evenodd">
        <g id="Desktop-HD" transform="translate(-377.000000, -9.000000)">
            <g id="noun_clock_162673" transform="translate(378.000000, 10.000000)">
                <path d="M9.5,19 C4.26191111,19 0,14.7385111 0,9.5 C0,4.26191111 4.26191111,0 9.5,0 C14.7385111,0 19,4.26191111 19,9.5 C19,14.7385111 14.7385111,19 9.5,19 Z M9.5,0.808555556 C4.70756667,0.808555556 0.808555556,4.70756667 0.808555556,9.5 C0.808555556,14.2926444 4.70756667,18.1918667 9.5,18.1918667 C14.2926444,18.1918667 18.1918667,14.2926444 18.1918667,9.5 C18.1918667,4.70756667 14.2926444,0.808555556 9.5,0.808555556 Z" id="Shape" stroke="#464C47" fill="#464C47" fill-rule="nonzero"></path>
                <g id="Group" transform="translate(1.461538, 1.461538)" fill="#000000">
                    <g transform="translate(7.644970, 0.000000)" id="Oval">
                        <ellipse cx="0.636868508" cy="0.653934066" rx="1" ry="1"></ellipse>
                        <ellipse cx="0.636868508" cy="15.447" rx="1" ry="1"></ellipse>
                    </g>
                    <g transform="translate(0.000000, 7.307692)" id="Oval">
                        <ellipse cx="0.758975674" cy="0.74267033" rx="1" ry="1"></ellipse>
                        <ellipse cx="15.8051269" cy="0.74267033" rx="1" ry="1"></ellipse>
                    </g>
                </g>
                <g id="Group" transform="translate(3.897436, 3.410256)" fill="#000000">
                    <g id="Oval">
                        <ellipse cx="0.615934066" cy="0.74957265" rx="1" ry="1"></ellipse>
                        <ellipse cx="11.0763736" cy="11.4544872" rx="1" ry="1"></ellipse>
                    </g>
                    <g id="Oval">
                        <ellipse cx="0.615934066" cy="11.4544872" rx="1" ry="1"></ellipse>
                        <ellipse cx="11.0763736" cy="0.74957265" rx="1" ry="1"></ellipse>
                    </g>
                </g>
                <path d="M13.5188678,6.52471267 C13.3568953,6.36939994 13.0930929,6.36939994 12.9311204,6.52471267 L9.55010752,9.7580413 L5.58134728,5.96263839 C5.41915767,5.80732566 5.15578953,5.80732566 4.99359992,5.96263839 C4.83119319,6.11795112 4.83119319,6.36939994 4.99359992,6.52471267 L9.10913416,10.4608937 C9.13497159,10.4856025 9.23093921,10.5773782 9.2563424,10.6012565 C9.33732864,10.6791205 9.44371808,10.7179487 9.55032464,10.7179487 C9.65627983,10.7179487 9.76310351,10.6789129 9.844524,10.6012565 L13.5190849,7.08720222 C13.6817087,6.93188949 13.6817087,6.67981776 13.5188678,6.52471267 Z" id="Path" stroke="#464C47" fill="#464C47"></path>
            </g>
        </g>
    </g>
</svg>