<?xml version="1.0" encoding="UTF-8"?>
<svg width="53px" height="61px" viewBox="0 0 53 61" version="1.1" xmlns="http://www.w3.org/2000/svg" xmlns:xlink="http://www.w3.org/1999/xlink">
    <!-- Generator: Sketch 52.6 (67491) - http://www.bohemiancoding.com/sketch -->
    <title>Group 31 Copy 5</title>
    <desc>Created with Sketch.</desc>
    <g id="Page-1" stroke="none" stroke-width="1" fill="none" fill-rule="evenodd">
        <g id="Desktop-HD-Copy-2" transform="translate(-694.000000, -1375.000000)">
            <g id="Group-31-Copy-5" transform="translate(690.000000, 1375.000000)">
                <polygon id="Polygon" fill="#C29049" points="30.5 0 56.9137748 15.25 56.9137748 45.75 30.5 61 4.08622518 45.75 4.08622518 15.25"></polygon>
                <g id="noun_car-cleaning_1852659" transform="translate(15.000000, 16.000000)" fill="#FFFFFF" fill-rule="nonzero">
                    <path d="M18.9441,6.13636364 C20.0852444,6.13636364 21.0107667,5.22034091 21.0107667,4.09090909 C21.0107667,2.96147727 20.0852444,2.04545455 18.9441,2.04545455 C17.8029556,2.04545455 16.8774333,2.96147727 16.8774333,4.09090909 C16.8774333,5.22034091 17.8029556,6.13636364 18.9441,6.13636364 Z M18.9441,3.06818182 C19.5138111,3.06818182 19.9774333,3.52704545 19.9774333,4.09090909 C19.9774333,4.65477273 19.5138111,5.11363636 18.9441,5.11363636 C18.3743889,5.11363636 17.9107667,4.65477273 17.9107667,4.09090909 C17.9107667,3.52704545 18.3743889,3.06818182 18.9441,3.06818182 Z" id="Shape"></path>
                    <path d="M14.4663222,3.40909091 C15.4176778,3.40909091 16.1885444,2.64613636 16.1885444,1.70454545 C16.1885444,0.762954545 15.4176778,0 14.4663222,0 C13.5149667,0 12.7441,0.762954545 12.7441,1.70454545 C12.7441,2.64613636 13.5149667,3.40909091 14.4663222,3.40909091 Z M14.4663222,1.02272727 C14.8462444,1.02272727 15.1552111,1.32852273 15.1552111,1.70454545 C15.1552111,2.08056818 14.8462444,2.38636364 14.4663222,2.38636364 C14.0864,2.38636364 13.7774333,2.08056818 13.7774333,1.70454545 C13.7774333,1.32852273 14.0864,1.02272727 14.4663222,1.02272727 Z" id="Shape"></path>
                    <path d="M30.9996556,15 L29.4989111,15 C29.5405889,14.9018182 29.5836444,14.8043182 29.6139556,14.7 C29.7527667,14.2247727 29.7558667,13.72875 29.6356556,13.2617045 C30.2274111,12.8836364 30.6803556,12.3020455 30.8828889,11.6069318 C31.3372111,10.0452273 30.4240889,8.40886364 28.8475667,7.95920455 C28.6543333,7.90431818 28.4569667,7.86852273 28.2582222,7.85284091 C27.8245667,6.57306818 26.7784889,5.54897727 25.4330889,5.16511364 C25.0517889,5.05636364 24.6584333,5.00147727 24.2643889,5.00147727 C22.3992222,5.00147727 20.7355556,6.24204545 20.2182,8.01818182 C20.1692889,8.18590909 20.1358778,8.35431818 20.1097,8.52272727 L18.3764556,8.52272727 C18.2755333,8.25136364 18.1453333,7.98920455 17.9837889,7.73965909 C17.3937556,6.82875 16.4809778,6.20079545 15.4135444,5.97068182 C15.1290333,5.90897727 14.8372889,5.87795455 14.5472667,5.87795455 C13.9255444,5.87795455 13.3176,6.02147727 12.7664889,6.28806818 C12.1633667,5.22 11.1176333,4.42261364 9.8704,4.15363636 C9.56108889,4.08681818 9.24523333,4.05306818 8.93075556,4.05306818 C6.88062222,4.05306818 5.0747,5.49272727 4.63691111,7.47579545 C4.53667778,7.93159091 4.51084444,8.39420455 4.55837778,8.84965909 C2.36185556,9.54340909 0.652033333,11.3560227 0.150866667,13.6288636 C-0.567644444,16.8872727 1.34574444,20.1180682 4.47708889,21.1452273 L4.47708889,30 L8.61042222,30 L8.83947778,27.2798864 L24.9143556,27.2740909 L25.1441,30 L29.2774333,30 L29.2774333,20.1136364 L28.3278,17.7640909 L30.9996556,17.3863636 L30.9996556,15 Z M21.2112333,8.30147727 C21.6128556,6.92215909 22.8831667,6.02420455 24.2643889,6.02420455 C24.5561333,6.02420455 24.8523556,6.06409091 25.1468556,6.14795455 C26.4657333,6.52431818 27.3457889,7.67420455 27.4353444,8.95772727 C27.6234111,8.89772727 27.8218111,8.86602273 28.024,8.86602273 C28.2017333,8.86602273 28.3822222,8.89056818 28.5616778,8.94170455 C29.5922556,9.23556818 30.1874556,10.3026136 29.8902,11.3232955 C29.6590778,12.11625 28.9564111,12.6463636 28.1710778,12.7046591 C28.6074889,13.1410227 28.8055444,13.7863636 28.6209222,14.4173864 C28.5572,14.63625 28.4511111,14.8298864 28.3185,14.9996591 L27.373,14.9996591 L25.8329889,8.52238636 L21.1578444,8.52238636 C21.1733444,8.44875 21.1898778,8.37477273 21.2112333,8.30147727 Z M24.4689889,10.2272727 L26.009,16.7045455 L7.74586667,16.7045455 L9.28587778,10.2272727 L24.4689889,10.2272727 Z M1.16077778,13.8467045 C1.66745556,11.55 3.57395556,9.91568182 5.80216667,9.61670455 C5.56656667,9.02556818 5.49974444,8.36147727 5.64682222,7.69397727 C5.99023333,6.13772727 7.38454444,5.07545455 8.9311,5.07545455 C9.16807778,5.07545455 9.40918889,5.10034091 9.6503,5.1525 C11.0611444,5.45727273 12.0648556,6.59761364 12.2567111,7.93397727 C12.8302111,7.29238636 13.6589444,6.90034091 14.5472667,6.90034091 C14.7601333,6.90034091 14.9764444,6.92284091 15.1934444,6.96988636 C16.1127667,7.16795455 16.8419556,7.75772727 17.2466778,8.52272727 L7.92187778,8.52272727 L6.38186667,15 L2.75521111,15 L2.75521111,17.3863636 L5.42706667,17.7640909 L4.49947778,20.0594318 C2.0429,19.0919318 0.578666667,16.4884091 1.16077778,13.8467045 Z M8.0941,23.8636364 C7.04802222,23.8636364 6.19965556,23.0239773 6.19965556,21.9886364 C6.19965556,20.9532955 7.04802222,20.1136364 8.0941,20.1136364 C9.14017778,20.1136364 9.98854444,20.9532955 9.98854444,21.9886364 C9.98854444,23.0239773 9.14017778,23.8636364 8.0941,23.8636364 Z M21.3552111,25.2272727 L12.3996556,25.2272727 L12.0552111,22.8409091 L21.6996556,22.8409091 L21.3552111,25.2272727 Z M25.6607667,23.8636364 C24.6146889,23.8636364 23.7663222,23.0239773 23.7663222,21.9886364 C23.7663222,20.9532955 24.6146889,20.1136364 25.6607667,20.1136364 C26.7068444,20.1136364 27.5552111,20.9532955 27.5552111,21.9886364 C27.5552111,23.0239773 26.7068444,23.8636364 25.6607667,23.8636364 Z" id="Shape"></path>
                </g>
            </g>
        </g>
    </g>
</svg>