<?xml version="1.0" encoding="UTF-8"?>
<svg width="20px" height="16px" viewBox="0 0 20 16" version="1.1" xmlns="http://www.w3.org/2000/svg" xmlns:xlink="http://www.w3.org/1999/xlink">
    <!-- Generator: Sketch 52.6 (67491) - http://www.bohemiancoding.com/sketch -->
    <title>noun_Check_1807547</title>
    <desc>Created with Sketch.</desc>
    <g id="Page-1" stroke="none" stroke-width="1" fill="none" fill-rule="evenodd">
        <g id="Desktop-HD-Copy-3" transform="translate(-114.000000, -2386.000000)" fill="#C29049">
            <g id="Group-27" transform="translate(114.000000, 2174.000000)">
                <g id="Group-15" transform="translate(0.000000, 209.500000)">
                    <g id="Group-14">
                        <g id="noun_Check_1807547" transform="translate(0.000000, 3.000000)">
                            <g id="Group" transform="translate(0.000000, 0.217439)">
                                <path d="M16.5142156,0.635607955 C13.2125247,3.9444375 10.2009031,7.19918182 7.01137466,10.4473636 L3.10157352,7.32593182 C2.62581147,6.94532208 1.98313632,6.84744024 1.41563761,7.06915744 C0.848138899,7.29087464 0.442033203,7.79850676 0.350296625,8.40083367 C0.258560048,9.00316058 0.49512956,9.60867447 0.970891705,9.98928409 L6.08452807,14.0801932 C6.76313792,14.6215661 7.74019527,14.5665207 8.3537042,13.9523523 C12.0251178,10.2730568 15.3205769,6.65236364 18.921886,3.04327841 C19.4281562,2.55395231 19.5815032,1.80372134 19.3078539,1.15497984 C19.0342045,0.506238353 18.3898694,0.092482265 17.6860906,0.113573864 C17.2423929,0.128356557 16.8219646,0.315644378 16.5142156,0.635607955 Z" id="Path"></path>
                            </g>
                        </g>
                    </g>
                </g>
            </g>
        </g>
    </g>
</svg>