<?xml version="1.0" encoding="UTF-8"?>
<svg width="53px" height="61px" viewBox="0 0 53 61" version="1.1" xmlns="http://www.w3.org/2000/svg" xmlns:xlink="http://www.w3.org/1999/xlink">
    <!-- Generator: Sketch 52.6 (67491) - http://www.bohemiancoding.com/sketch -->
    <title>Group 31 Copy</title>
    <desc>Created with Sketch.</desc>
    <g id="Page-1" stroke="none" stroke-width="1" fill="none" fill-rule="evenodd">
        <g id="Desktop-HD-Copy-2" transform="translate(-773.000000, -1272.000000)">
            <g id="Group-31-Copy" transform="translate(769.000000, 1272.000000)">
                <polygon id="Polygon" fill="#C29049" points="30.5 0 56.9137748 15.25 56.9137748 45.75 30.5 61 4.08622518 45.75 4.08622518 15.25"></polygon>
                <g id="noun_Car-polishing_1852709" transform="translate(16.000000, 15.000000)" fill="#FFFFFF" fill-rule="nonzero">
                    <path d="M8.5,8 L9.76028257,5.12070319 L13,4.00094177 L9.76028257,2.88023858 L8.5,0 L7.23971743,2.88023858 L4,4.00031392 L7.23971743,5.12038926 L8.5,8 Z M8.05812402,3.60696908 L8.5,2.5967666 L8.94187598,3.60665516 L10.0795918,4 L8.94187598,4.39303092 L8.5,5.40354732 L8.05812402,4.39303092 L6.9211146,4.00031392 L8.05812402,3.60696908 Z" id="Shape"></path>
                    <path d="M2.50017092,11 L3.50345252,9.50321302 L5,8.5 L3.50345252,7.49712879 L2.50017092,6 L1.49723115,7.49712879 L0,8.5 L1.49723115,9.50287121 L2.50017092,11 Z M2.23627538,8.2361225 L2.50017092,7.84201531 L2.76440829,8.2361225 L3.15854242,8.50034181 L2.76440829,8.76490293 L2.50017092,9.15901012 L2.23627538,8.76456112 L1.84214125,8.50034181 L2.23627538,8.2361225 Z" id="Shape"></path>
                    <path d="M28.5904863,12.7154294 L29,12.0993776 L28.2643426,11.9628418 C25.6581947,11.4803718 24.5760514,9.42642801 23.4305468,7.2520308 C22.2246823,4.96341621 20.9781332,2.59767205 17.8931077,2.02658508 L17.7480438,2 L17.6113169,2.05513943 C16.0856449,2.67020666 15.3119707,3.38275252 14.3065279,4.39987809 C13.5922132,5.12194207 12.9529316,6.0110654 12.3349928,6.87064974 C11.7387302,7.70003868 11.1221252,8.55732555 10.4621679,9.2242501 L10.3527863,9.33518538 L5.99920203,9.33518538 L4.50921239,15.5675821 L1,15.5675821 L1,17.8637456 L3.58580565,18.2274033 L2.66640068,20.4877917 L2.66640068,30 L6.665829,30 L6.88792682,27.3828463 L22.4414444,27.3772667 L22.6635423,30 L26.6626371,30 L26.6626371,20.4874635 L25.7442326,18.2270751 L28.3290378,17.8634174 L28.3290378,15.5672539 L25.6955445,15.5672539 C26.5916058,15.002403 27.5266844,14.3170986 28.5904863,12.7154294 Z M16.7179234,18.3846163 C15.4687065,17.3044742 14.81842,15.8248995 14.1327847,14.2645849 C13.5468599,12.9304076 12.9445946,11.5614399 11.9331491,10.4304252 C13.7019282,11.2397932 14.6116623,12.9576491 15.5624144,14.7614962 C16.1360004,15.8501717 16.7212582,16.9549296 17.5072711,17.8772022 L16.7179234,18.3846163 Z M7.31945023,10.9752552 L11.0767719,10.9752552 C12.0408632,12.0012425 12.6181175,13.2950499 13.2157141,14.6551558 C13.5932137,15.5157248 13.9780499,16.3910633 14.4752689,17.207652 L5.82979408,17.207652 L7.31945023,10.9752552 Z M6.16594214,24.0958141 C5.15382966,24.0958141 4.33280135,23.2880871 4.33280135,22.2916388 C4.33280135,21.2951905 5.15382966,20.4874635 6.16594214,20.4874635 C7.17805462,20.4874635 7.99908293,21.2951905 7.99908293,22.2916388 C7.99908293,23.2877589 7.1783881,24.0958141 6.16594214,24.0958141 Z M18.9972607,25.4076731 L10.3321106,25.4076731 L9.99896383,23.1115097 L19.3307409,23.1115097 L18.9972607,25.4076731 Z M23.1634291,24.0958141 C22.1513167,24.0958141 21.3302883,23.2880871 21.3302883,22.2916388 C21.3302883,21.2951905 22.1513167,20.4874635 23.1634291,20.4874635 C24.1755416,20.4874635 24.9962364,21.2951905 24.9962364,22.2916388 C24.9962364,23.2877589 24.1755416,24.0958141 23.1634291,24.0958141 Z M24.8161571,14.9502174 C23.6489763,15.6696557 22.4434453,16.4133816 20.939783,18.9448723 C18.57941,18.351467 17.5436204,16.3851555 16.4494718,14.3085651 C15.358658,12.2372261 14.2334957,10.1025425 11.742065,9.29251796 C12.2372831,8.70994362 12.6994867,8.06665026 13.1513524,7.43878281 C13.7469481,6.60972208 14.363553,5.75276342 15.0235104,5.08583887 C15.9335779,4.16553551 16.5688577,3.56261209 17.8520896,3.02204874 C20.3551922,3.55210934 21.4179936,5.57027816 22.5421555,7.70463363 C23.6473089,9.8025577 24.7871443,11.9654675 27.3466051,12.7508762 C26.4402058,13.9491742 25.6478568,14.4372238 24.8161571,14.9502174 Z" id="Shape"></path>
                </g>
            </g>
        </g>
    </g>
</svg>