<?xml version="1.0" encoding="UTF-8"?>
<svg width="53px" height="61px" viewBox="0 0 53 61" version="1.1" xmlns="http://www.w3.org/2000/svg" xmlns:xlink="http://www.w3.org/1999/xlink">
    <!-- Generator: Sketch 52.6 (67491) - http://www.bohemiancoding.com/sketch -->
    <title>Group 20</title>
    <desc>Created with Sketch.</desc>
    <g id="Page-1" stroke="none" stroke-width="1" fill="none" fill-rule="evenodd">
        <g id="Desktop-HD-Copy-2" transform="translate(-947.000000, -1242.000000)">
            <g id="Group-20" transform="translate(943.000000, 1242.000000)">
                <polygon id="Polygon" fill="#C29049" points="30.5 0 56.9137748 15.25 56.9137748 45.75 30.5 61 4.08622518 45.75 4.08622518 15.25"></polygon>
                <g id="noun_Fire_1011848" transform="translate(29.000000, 14.000000)" fill="#FFFFFF" fill-rule="nonzero">
                    <path d="M2.91659051,7.04396179 C2.85905621,6.52259298 2.34879305,6.0725539 2.02080041,6.29659296 C1.12831146,6.97312231 0.46784605,8.79705523 0.156594949,10.1113851 C-0.122587857,11.290409 0.0125234167,12.5044851 0.242660595,13.6839993 C0.749151023,16.2783422 3.03448865,18.1895376 5.4330085,18.7712058 C7.77305087,19.3384119 10.7214477,18.8981776 12.3571665,16.9183488 C13.231735,15.8599235 13.8207541,14.5232879 13.9704847,13.1339515 C14.1251671,11.6995132 13.6613558,10.4908298 12.8256937,9.37382101 C11.8520909,8.07297273 10.6160467,7.00449758 9.81881947,5.56442153 C9.14043355,4.33833465 8.15433347,2.53548199 9.04965198,1.18634521 C9.40924132,0.644876612 8.8070176,-0.19343149 8.20172853,0.0401672297 C4.57777536,1.4373474 3.43345597,5.36342368 3.95621635,8.9982982 C3.40893316,8.47349771 3.0000624,7.79500741 2.91659051,7.04396179 Z M4.88360315,11.356101 C5.41367321,11.563472 5.96944506,10.9332702 5.80226549,10.4011161 C4.9696688,7.74745426 5.05101852,4.21577498 7.18214537,2.38056657 C7.18403174,4.0194344 8.09821396,5.77644975 8.93599817,7.01381212 C10.2305198,8.92598799 12.9773108,10.6136346 12.4778942,13.2692574 C12.2392684,14.5365243 11.523155,15.8702186 10.4634865,16.5818 C9.59528459,17.1649389 8.47383744,17.4066265 7.45283951,17.4252556 C5.29436029,17.4649649 3.14130437,16.4136481 2.07291139,14.4068562 C1.08822609,12.5579211 1.44475007,10.497448 1.79467177,8.49629381 C2.38204032,9.82287962 3.5273029,10.8246823 4.88360315,11.356101 Z" id="Shape"></path>
                </g>
                <g id="noun_Fire_1011848-Copy" transform="translate(17.000000, 21.000000)" fill="#FFFFFF" fill-rule="nonzero">
                    <path d="M1.87495104,4.44881797 C1.83796471,4.11953241 1.50993839,3.8352972 1.29908598,3.97679555 C0.725343078,4.40407725 0.300758175,5.55603488 0.100668182,6.38613794 C-0.0788064794,7.13078465 0.00805076788,7.89756952 0.155996097,8.64252586 C0.481597086,10.2810583 1.95074271,11.488129 3.49264832,11.8554984 C4.99696128,12.2137339 6.89235922,11.9356911 7.94389277,10.6852729 C8.50611533,10.0167938 8.88477049,9.17260285 8.9810259,8.29512726 C9.08046456,7.38916623 8.78230016,6.62578723 8.24508884,5.920308 C7.61920128,5.09871962 6.82460147,4.42389321 6.31209823,3.51437149 C5.875993,2.74000083 5.24207152,1.60135705 5.81763342,0.749270658 C6.04879799,0.407290492 5.66165417,-0.122167257 5.27253977,0.0253687766 C2.94285559,0.907798358 2.2072217,3.38742548 2.54328194,5.6831357 C2.19145703,5.35168277 1.92861154,4.92316258 1.87495104,4.44881797 Z M3.13945917,7.17227432 C3.48021849,7.30324545 3.8375004,6.90522327 3.73002782,6.56912596 C3.19478708,4.89312901 3.24708333,2.66259473 4.61709345,1.50351573 C4.61830612,2.53859015 5.20599469,3.64828405 5.74457025,4.42977607 C6.57676273,5.6374661 8.34255692,6.70334815 8.02150343,8.3805836 C7.8681011,9.18096271 7.40774253,10.0232959 6.72652705,10.4727158 C6.16839724,10.841014 5.44746693,10.9936588 4.79111112,11.0054246 C3.40351733,11.0305042 2.01940995,10.3665146 1.33258589,9.09906706 C0.699573913,7.93131858 0.928767905,6.62996716 1.15371756,5.3660803 C1.53131164,6.20392397 2.26755186,6.83664146 3.13945917,7.17227432 Z" id="Shape"></path>
                </g>
                <g id="noun_car-cleaning_1852704" transform="translate(16.000000, 24.000000)" fill="#FFFFFF" fill-rule="nonzero">
                    <path d="M22.0586889,0.0126666667 L5.31312222,0.0126666667 L3.87343333,6.34233333 L0.482688889,6.34233333 L0.482688889,8.67433333 L2.98055556,9.04366667 L2.09283333,11.3393333 L2.09283333,21 L5.95724444,21 L6.17152222,18.342 L21.2002889,18.3363333 L21.4145667,21 L25.2789778,21 L25.2789778,11.339 L24.3912556,9.04333333 L26.8891222,8.674 L26.8891222,6.342 L23.4983778,6.342 L22.0586889,0.0126666667 Z M6.58815556,1.67833333 L20.7833333,1.67833333 L22.2230222,8.008 L16.3415,8.008 L5.14846667,8.008 L6.58815556,1.67833333 Z M5.47391111,15.0036667 C4.49596667,15.0036667 3.70265556,14.1833333 3.70265556,13.1713333 C3.70265556,12.1593333 4.49564444,11.339 5.47391111,11.339 C6.45217778,11.339 7.24516667,12.1593333 7.24516667,13.1713333 C7.24516667,14.183 6.45185556,15.0036667 5.47391111,15.0036667 Z M17.8720556,16.336 L9.49943333,16.336 L9.17721111,14.004 L18.1939556,14.004 L17.8720556,16.336 Z M21.8975778,15.0036667 C20.9193111,15.0036667 20.1263222,14.1833333 20.1263222,13.1713333 C20.1263222,12.1593333 20.9193111,11.339 21.8975778,11.339 C22.8755222,11.339 23.6688333,12.1593333 23.6688333,13.1713333 C23.6688333,14.183 22.8755222,15.0036667 21.8975778,15.0036667 Z" id="Shape"></path>
                </g>
                <path d="M23,25.7100042 C26.9548173,25.7100042 29.9209302,25.7100042 31.8983389,25.7100042 C33.8757475,25.7100042 35.4281584,25.7100042 36.5555715,25.7100042 L38.3246346,32 L21.6543753,32 L23,25.7100042 Z" id="Rectangle" fill="#C29049"></path>
                <path d="M22.5,33.5063333 L24.5,35.5" id="Line-6" stroke="#C29049" stroke-linecap="square"></path>
                <path d="M34.5,33.5063333 L36.5,35.5" id="Line-6-Copy" stroke="#C29049" stroke-linecap="square" transform="translate(35.500000, 34.500000) scale(-1, 1) translate(-35.500000, -34.500000) "></path>
            </g>
        </g>
    </g>
</svg>