<?xml version="1.0" encoding="UTF-8"?>
<svg width="53px" height="61px" viewBox="0 0 53 61" version="1.1" xmlns="http://www.w3.org/2000/svg" xmlns:xlink="http://www.w3.org/1999/xlink">
    <!-- Generator: Sketch 52.6 (67491) - http://www.bohemiancoding.com/sketch -->
    <title>Group 18</title>
    <desc>Created with Sketch.</desc>
    <g id="Page-1" stroke="none" stroke-width="1" fill="none" fill-rule="evenodd">
        <g id="Desktop-HD-Copy-2" transform="translate(-697.000000, -1175.000000)">
            <g id="Group-18" transform="translate(693.000000, 1175.000000)">
                <g id="Group-31-Copy-3" fill="#C29049">
                    <polygon id="Polygon" points="30.5 0 56.9137748 15.25 56.9137748 45.75 30.5 61 4.08622518 45.75 4.08622518 15.25"></polygon>
                </g>
                <g id="noun_car-cleaning_1852661" transform="translate(16.000000, 16.000000)" fill="#FFFFFF">
                    <ellipse id="Oval" cx="22.9878049" cy="10.1873864" rx="1.06132927" ry="1.02306818"></ellipse>
                    <ellipse id="Oval" cx="15.7378049" cy="7.28965909" rx="1" ry="1"></ellipse>
                    <ellipse id="Oval" cx="19.097561" cy="10.8695455" rx="1" ry="1"></ellipse>
                    <ellipse id="Oval" cx="18.7439024" cy="7.11920455" rx="1" ry="1"></ellipse>
                    <path d="M7.7804878,6.675 C8.95215854,6.675 9.90243902,5.75897727 9.90243902,4.62954545 C9.90243902,3.50011364 8.95215854,2.58409091 7.7804878,2.58409091 C6.60881707,2.58409091 5.65853659,3.50011364 5.65853659,4.62954545 C5.65853659,5.75897727 6.60881707,6.675 7.7804878,6.675 Z M7.7804878,3.60681818 C8.36543902,3.60681818 8.84146341,4.06568182 8.84146341,4.62954545 C8.84146341,5.19340909 8.36543902,5.65227273 7.7804878,5.65227273 C7.19553659,5.65227273 6.7195122,5.19340909 6.7195122,4.62954545 C6.7195122,4.06568182 7.19553659,3.60681818 7.7804878,3.60681818 Z" id="Shape" fill-rule="nonzero"></path>
                    <path d="M2.12195122,9.33511364 C3.0987561,9.33511364 3.8902439,8.57215909 3.8902439,7.63056818 C3.8902439,6.68897727 3.0987561,5.92602273 2.12195122,5.92602273 C1.14514634,5.92602273 0.353658537,6.68897727 0.353658537,7.63056818 C0.353658537,8.57215909 1.14514634,9.33511364 2.12195122,9.33511364 Z M2.12195122,6.94875 C2.51203659,6.94875 2.82926829,7.25454545 2.82926829,7.63056818 C2.82926829,8.00659091 2.51203659,8.31238636 2.12195122,8.31238636 C1.73186585,8.31238636 1.41463415,8.00659091 1.41463415,7.63056818 C1.41463415,7.25454545 1.73186585,6.94875 2.12195122,6.94875 Z" id="Shape" fill-rule="nonzero"></path>
                    <path d="M29,14.7896591 L25.2763293,14.7896591 L25.083939,14.0011364 L26.0568537,13.0632955 C26.8225244,12.3255682 27.2437317,11.3406818 27.2437317,10.2910227 C27.2437317,9.24102273 26.8225244,8.25647727 26.0568537,7.51875 L25.2052439,6.69784091 C25.5475854,6.51306818 25.8503171,6.26011364 26.0780732,5.93761364 C26.4660366,5.38636364 26.6078537,4.72295455 26.4787683,4.06977273 C26.3493293,3.41556818 25.9631341,2.84965909 25.391622,2.47636364 C25.0460976,2.24965909 24.6528293,2.10954545 24.2411707,2.06488636 C24.0608049,1.50613636 23.6905244,1.00704545 23.1695854,0.665795455 C22.7137195,0.367840909 22.1825244,0.210340909 21.632939,0.210340909 C20.7597561,0.210340909 19.9477561,0.611590909 19.4331829,1.28352273 C18.7962439,0.902045455 18.0602805,0.694090909 17.2885976,0.694090909 C16.1996829,0.694090909 15.1783171,1.10011364 14.413,1.83818182 L12.2051098,3.96647727 C11.4397927,4.70420455 11.0182317,5.68875 11.0185854,6.73875 C11.0185854,7.29034091 11.1377683,7.82284091 11.3591585,8.31170455 L5.30487805,8.31170455 L3.72367073,14.7889773 L0,14.7889773 L0,17.1753409 L2.74332927,17.5530682 L1.76829268,19.9032955 L1.76829268,29.7896591 L6.01219512,29.7896591 L6.24737805,27.0695455 L22.7522683,27.06375 L22.9878049,29.7896591 L27.2317073,29.7896591 L27.2317073,19.9032955 L26.2566707,17.55375 L29,17.1760227 L29,14.7896591 Z M18.097061,15.1915909 C18.862378,15.9296591 19.8840976,16.3356818 20.9730122,16.3356818 C22.0619268,16.3356818 23.0836463,15.9296591 23.8489634,15.1915909 L23.9614268,15.0831818 C23.9628415,15.0896591 23.9653171,15.0951136 23.9667317,15.1015909 C24.3674268,16.7969318 23.2679024,18.4830682 21.5091585,18.8693182 C21.2658415,18.9225 21.0232317,18.9480682 20.7841585,18.9480682 C19.6715488,18.9480682 18.6392195,18.39375 18.0433049,17.5043182 C17.7819512,17.7715909 17.4381951,17.9689773 17.0389146,18.0569318 C16.8900244,18.0896591 16.7414878,18.1053409 16.5950732,18.1053409 C15.6847561,18.1053409 14.861439,17.4995455 14.6503049,16.6073864 C14.4603902,15.8025 14.8264268,15.0023864 15.5033293,14.5755682 C14.8918537,14.4020455 14.3907195,13.9319318 14.240061,13.2910227 C14.1123902,12.7513636 14.2605732,12.2147727 14.5933659,11.8142045 L18.097061,15.1915909 Z M21.6325854,1.23306818 C21.9568902,1.23306818 22.2847317,1.32375 22.5729634,1.51193182 C23.1681707,1.90159091 23.418561,2.595 23.2565854,3.23113636 C23.4726707,3.12647727 23.7113902,3.07159091 23.9515244,3.07159091 C24.242939,3.07159091 24.5364756,3.15204545 24.796061,3.32215909 C25.4924146,3.77727273 25.6727805,4.69125 25.201,5.36147727 C25.0025976,5.64238636 24.7217927,5.83397727 24.4109268,5.93113636 L20.255439,1.92681818 C20.5800976,1.47613636 21.1013902,1.23306818 21.6325854,1.23306818 Z M12.9548659,4.69022727 L15.1627561,2.56193182 C15.7279024,2.01715909 16.4822561,1.71715909 17.2882439,1.71715909 C18.0942317,1.71715909 18.848939,2.01715909 19.4140854,2.56193182 L25.3067439,8.24181818 C25.8718902,8.78659091 26.1831098,9.51409091 26.1831098,10.2910227 C26.1831098,11.0679545 25.8718902,11.7954545 25.3067439,12.3402273 L23.0988537,14.4685227 C22.5337073,15.0132955 21.779,15.3132955 20.9730122,15.3132955 C20.1670244,15.3132955 19.4123171,15.0132955 18.8471707,14.4685227 L12.9552195,8.78863636 C12.3900732,8.24386364 12.0788537,7.51636364 12.0788537,6.73943182 C12.0788537,5.9625 12.3897195,5.23465909 12.9548659,4.69022727 Z M6.70536585,10.0169318 L12.7292317,10.0169318 L13.8414878,11.0894318 C13.7456463,11.1951136 13.6551098,11.30625 13.5755366,11.4272727 C13.166,12.0545455 13.0347927,12.7970455 13.2056098,13.51875 C13.3187805,14.0014773 13.5652805,14.4371591 13.9072683,14.7886364 C13.6197439,15.3047727 13.4949024,15.8993182 13.5599756,16.4945455 L5.12415854,16.4945455 L6.70536585,10.0169318 Z M5.48170732,23.6532955 C4.40764634,23.6532955 3.53658537,22.8136364 3.53658537,21.7782955 C3.53658537,20.7429545 4.40764634,19.9032955 5.48170732,19.9032955 C6.55576829,19.9032955 7.42682927,20.7429545 7.42682927,21.7782955 C7.42682927,22.8136364 6.55576829,23.6532955 5.48170732,23.6532955 Z M19.097561,25.0169318 L9.90243902,25.0169318 L9.54878049,22.6305682 L19.4512195,22.6305682 L19.097561,25.0169318 Z M23.5182927,23.6532955 C22.4442317,23.6532955 21.5731707,22.8136364 21.5731707,21.7782955 C21.5731707,20.7429545 22.4442317,19.9032955 23.5182927,19.9032955 C24.5923537,19.9032955 25.4634146,20.7429545 25.4634146,21.7782955 C25.4634146,22.8136364 24.5923537,23.6532955 23.5182927,23.6532955 Z" id="Shape" fill-rule="nonzero"></path>
                </g>
            </g>
        </g>
    </g>
</svg>