<?xml version="1.0" encoding="UTF-8"?>
<svg width="15px" height="20px" viewBox="0 0 15 20" version="1.1" xmlns="http://www.w3.org/2000/svg" xmlns:xlink="http://www.w3.org/1999/xlink">
    <!-- Generator: Sketch 52.6 (67491) - http://www.bohemiancoding.com/sketch -->
    <title>Group</title>
    <desc>Created with Sketch.</desc>
    <g id="Page-1" stroke="none" stroke-width="1" fill="none" fill-rule="evenodd">
        <g id="Desktop-HD-Copy-3" transform="translate(-216.000000, -66.000000)" fill="#464C47" fill-rule="nonzero">
            <g id="noun_Pin-location_3190353" transform="translate(216.000000, 66.000000)">
                <g id="Group">
                    <path d="M7.5,20 C7.29743967,19.9997085 7.1019202,19.9256481 6.95,19.7916667 C6.66666667,19.5416667 0,13.6416666 0,7.49999993 C6.17226307e-08,3.35786433 3.35786442,-2.53632658e-16 7.5,0 C11.6421356,2.53632658e-16 14.9999999,3.35786433 15,7.49999993 C15,13.6416666 8.33333333,19.5416667 8.05,19.7916667 C7.8980798,19.9256481 7.70256033,19.9997085 7.5,20 Z M7.5,1.66666656 C4.27833896,1.66666656 1.66666667,4.27833887 1.66666667,7.49999993 C1.66666667,11.9333333 5.95,16.5166666 7.5,18.025 C9.05,16.5166666 13.3333333,11.9333333 13.3333333,7.49999993 C13.3333333,4.27833887 10.721661,1.66666656 7.5,1.66666656 Z" id="Shape"></path>
                    <path d="M7.5,11 C5.56700338,11 4,9.43299662 4,7.5 C4,5.56700338 5.56700338,4 7.5,4 C9.43299662,4 11,5.56700338 11,7.5 C11,8.42825771 10.6312511,9.31849641 9.97487373,9.97487373 C9.31849641,10.6312511 8.42825771,11 7.5,11 Z M7.5,5.75 C6.53350169,5.75 5.75,6.53350169 5.75,7.5 C5.75,8.46649831 6.53350169,9.25 7.5,9.25 C8.46649831,9.25 9.25,8.46649831 9.25,7.5 C9.25,6.53350169 8.46649831,5.75 7.5,5.75 Z" id="Shape"></path>
                </g>
            </g>
        </g>
    </g>
</svg>