<?xml version="1.0" encoding="UTF-8"?>
<svg width="13px" height="19px" viewBox="0 0 13 19" version="1.1" xmlns="http://www.w3.org/2000/svg" xmlns:xlink="http://www.w3.org/1999/xlink">
    <!-- Generator: Sketch 52.6 (67491) - http://www.bohemiancoding.com/sketch -->
    <title>noun_Location_3158251</title>
    <desc>Created with Sketch.</desc>
    <g id="Page-1" stroke="none" stroke-width="1" fill="none" fill-rule="evenodd">
        <g id="Desktop-HD" transform="translate(-94.000000, -10.000000)" fill="#464C47">
            <g id="Group-12">
                <g id="noun_Location_3158251" transform="translate(94.000000, 10.000000)">
                    <g id="Group">
                        <path d="M6.78714735,18.3157376 C6.41321852,17.6594297 6.03928969,17.0031219 5.66536086,16.346814 C4.92206332,15.0387559 4.17420566,13.7261402 3.43090811,12.4180821 C2.87457498,11.4427357 2.31824185,10.4673893 1.76646882,9.49204288 C1.52478312,9.06817738 1.30589795,8.63975419 1.1554144,8.17031175 C0.831646753,7.13571531 0.81796643,6.02819577 1.10981332,4.98448395 C1.71174753,2.85148336 3.60875231,1.20159829 5.81584442,0.937252067 C8.0685376,0.668348147 10.3029903,1.79865615 11.4019763,3.78581054 C12.3550388,5.5131764 12.3003175,7.63250391 11.306214,9.32340822 C10.8684437,10.07087 10.4261133,10.8092163 9.98834292,11.5566781 C9.21768473,12.8647361 8.44246643,14.1727942 7.67180823,15.4808522 C7.14283574,16.3787179 6.60930315,17.2765835 6.08033066,18.1790068 C6.05297002,18.2245837 6.02560937,18.2747184 5.99824872,18.3202953 C5.69728162,18.8261993 6.48618024,19.2865263 6.78714735,18.7806224 C7.18843682,18.0969683 7.58972629,17.417872 7.99557588,16.734218 C8.78903461,15.3896983 9.58249334,14.0451787 10.3759521,12.7006591 C10.9277251,11.7708897 11.474938,10.8365625 12.026711,9.906793 C12.9797735,8.29336947 13.2807406,6.37458049 12.7152873,4.56517614 C11.9993504,2.25442551 9.9792227,0.458694243 7.58060608,0.0804056771 C5.0907873,-0.311555969 2.59184831,0.750386631 1.14629418,2.81046412 C-0.244538653,4.79306082 -0.372221668,7.47754233 0.776925461,9.59686983 C1.16453461,10.3124277 1.57950441,11.0097548 1.98079388,11.7161973 C2.74689197,13.0652746 3.51755016,14.4143519 4.28364825,15.7634292 C4.82630106,16.7205449 5.37351398,17.6776605 5.91616679,18.6347762 C5.94352743,18.6849108 5.97088808,18.7350454 5.99824872,18.7806224 C6.28553551,19.2865263 7.07443413,18.8261993 6.78714735,18.3157376 Z" id="Path"></path>
                        <path d="M8.27728709,5.70303188 C8.26906057,6.42032146 7.80837567,7.09753899 7.10089527,7.33396404 C6.38518836,7.5743963 5.59132955,7.36602168 5.11007835,6.79299146 C4.63705367,6.23198285 4.59180783,5.41852038 4.97022758,4.80141091 C5.34864732,4.19231585 6.10960007,3.84769628 6.8335335,3.99596284 C7.67263815,4.16827263 8.26494732,4.87354059 8.27728709,5.70303188 C8.28551361,6.21996124 9.10816523,6.21996124 9.09993871,5.70303188 C9.08759894,4.62910112 8.40068483,3.68740811 7.37237031,3.31473811 C6.37696185,2.95408972 5.19234352,3.27065886 4.51365593,4.06408532 C3.81028879,4.8855622 3.69100431,6.07970909 4.26274718,7.00537329 C4.8303768,7.92302308 5.92450346,8.37984437 6.99806382,8.19150577 C8.21558822,7.97511673 9.08348568,6.88916436 9.09582545,5.70303188 C9.10405197,5.18610253 8.28140035,5.18610253 8.27728709,5.70303188 Z" id="Path"></path>
                    </g>
                </g>
            </g>
        </g>
    </g>
</svg>