<?xml version="1.0" encoding="UTF-8"?>
<svg width="24px" height="24px" viewBox="0 0 24 24" version="1.1" xmlns="http://www.w3.org/2000/svg" xmlns:xlink="http://www.w3.org/1999/xlink">
    <!-- Generator: Sketch 52.6 (67491) - http://www.bohemiancoding.com/sketch -->
    <title>noun_Phone_373695</title>
    <desc>Created with Sketch.</desc>
    <g id="Page-1" stroke="none" stroke-width="1" fill="none" fill-rule="evenodd">
        <g id="Desktop-HD-Copy-3" transform="translate(-918.000000, -2708.000000)" fill="#464C47" fill-rule="nonzero">
            <g id="Group-25" transform="translate(0.000000, 2658.000000)">
                <g id="Group-17" transform="translate(158.000000, 46.000000)">
                    <g id="Group-16" transform="translate(760.000000, 0.000000)">
                        <g id="noun_Phone_373695" transform="translate(0.000000, 4.000000)">
                            <path d="M21.68,21.0666667 C22.6933333,20.0266667 22.6933333,18.64 21.68,17.6266667 L18.9066667,14.8533333 C18.4266667,14.3466667 17.84,14.08 17.2,14.08 C16.5866667,14.08 16,14.3466667 15.4933333,14.8533333 L13.8933333,16.4533333 C13.76,16.3733333 13.6266667,16.32 13.4933333,16.24 C13.3066667,16.16 13.1466667,16.0533333 12.9866667,15.9733333 C11.4933333,15.04 10.1333333,13.7866667 8.85333333,12.2133333 C8.21333333,11.4133333 7.78666667,10.7466667 7.49333333,10.0533333 C7.89333333,9.68 8.29333333,9.28 8.66666667,8.90666667 C8.8,8.77333333 8.96,8.61333333 9.09333333,8.48 C9.6,7.97333333 9.89333333,7.36 9.89333333,6.74666667 C9.89333333,6.13333333 9.62666667,5.54666667 9.09333333,5.01333333 L7.73333333,3.62666667 C7.57333333,3.46666667 7.41333333,3.30666667 7.28,3.14666667 C6.98666667,2.82666667 6.66666667,2.50666667 6.34666667,2.21333333 C5.86666667,1.73333333 5.28,1.46666667 4.66666667,1.46666667 C4.05333333,1.46666667 3.46666667,1.73333333 2.96,2.21333333 L1.22666667,3.94666667 C0.586666667,4.58666667 0.213333333,5.36 0.133333333,6.26666667 C0.0266666667,7.73333333 0.453333333,9.09333333 0.773333333,10 C1.57333333,12.1866667 2.8,14.24 4.61333333,16.4266667 C6.82666667,19.0666667 9.46666667,21.12 12.48,22.5866667 C13.6266667,23.1466667 15.1733333,23.7866667 16.9066667,23.8933333 C17.0133333,23.8933333 17.12,23.8933333 17.2266667,23.8933333 C18.3733333,23.8933333 19.36,23.4666667 20.1066667,22.64 C20.1066667,22.64 20.1333333,22.6133333 20.1333333,22.6133333 C20.4,22.2933333 20.6933333,22 21.0133333,21.7066667 C21.2533333,21.52 21.4666667,21.3066667 21.68,21.0666667 Z M20.1066667,20.7733333 C19.7866667,21.0933333 19.44,21.4133333 19.1466667,21.7866667 C18.64,22.3466667 18.0266667,22.5866667 17.2533333,22.5866667 C17.1733333,22.5866667 17.0933333,22.5866667 17.0133333,22.5866667 C15.52,22.4533333 14.1333333,21.8933333 13.0666667,21.3866667 C10.2133333,20 7.73333333,18.0533333 5.65333333,15.5733333 C3.94666667,13.52 2.8,11.6 2.02666667,9.54666667 C1.54666667,8.29333333 1.38666667,7.30666667 1.46666667,6.4 C1.52,5.81333333 1.76,5.33333333 2.16,4.90666667 L3.86666667,3.2 C4.10666667,2.96 4.37333333,2.82666667 4.64,2.82666667 C4.96,2.82666667 5.22666667,3.01333333 5.41333333,3.2 C5.73333333,3.49333333 6,3.78666667 6.32,4.10666667 C6.48,4.26666667 6.64,4.42666667 6.8,4.58666667 L8.16,5.94666667 C8.42666667,6.21333333 8.56,6.48 8.56,6.74666667 C8.56,7.01333333 8.42666667,7.28 8.16,7.54666667 C8.02666667,7.68 7.86666667,7.84 7.73333333,7.97333333 C7.30666667,8.4 6.90666667,8.8 6.48,9.2 C6.48,9.2 6.45333333,9.22666667 6.45333333,9.22666667 C6.02666667,9.65333333 6.10666667,10.08 6.18666667,10.3466667 C6.18666667,10.3733333 6.18666667,10.3733333 6.21333333,10.4 C6.56,11.2533333 7.06666667,12.08 7.84,13.04 C9.22666667,14.7466667 10.6933333,16.08 12.2933333,17.0933333 C12.5066667,17.2266667 12.72,17.3333333 12.9066667,17.44 C13.0933333,17.52 13.2533333,17.6266667 13.4133333,17.7066667 C13.44,17.7066667 13.44,17.7333333 13.4666667,17.7333333 C13.6266667,17.8133333 13.7866667,17.8666667 13.9466667,17.8666667 C14.3466667,17.8666667 14.6133333,17.6 14.6933333,17.52 L16.4266667,15.7866667 C16.5866667,15.6266667 16.88,15.4133333 17.2,15.4133333 C17.52,15.4133333 17.76,15.6266667 17.9466667,15.7866667 L20.72,18.56 C21.36,19.2 21.0666667,19.7866667 20.6933333,20.16 C20.5333333,20.3733333 20.32,20.56 20.1066667,20.7733333 Z M12.4266667,5.22666667 C12.48,4.85333333 12.8266667,4.61333333 13.2,4.69333333 C14.8,4.96 16.24,5.70666667 17.3866667,6.88 C18.5333333,8.05333333 19.28,9.49333333 19.5733333,11.0666667 C19.6266667,11.44 19.3866667,11.7866667 19.04,11.84 C19.0133333,11.84 18.96,11.84 18.9333333,11.84 C18.6133333,11.84 18.32,11.6 18.2666667,11.28 C18.0533333,9.97333333 17.4133333,8.74666667 16.4533333,7.81333333 C15.4933333,6.85333333 14.2933333,6.24 12.9866667,6 C12.5866667,5.94666667 12.3466667,5.6 12.4266667,5.22666667 Z M22.56,10.8266667 C22.16,8.48 21.04,6.34666667 19.36,4.64 C17.6533333,2.93333333 15.52,1.84 13.1733333,1.44 C12.8,1.38666667 12.56,1.04 12.64,0.666666667 C12.72,0.293333333 13.04,0.0533333333 13.4133333,0.133333333 C16,0.56 18.4,1.78666667 20.2933333,3.68 C22.1866667,5.57333333 23.44,7.97333333 23.8666667,10.5866667 C23.92,10.96 23.68,11.3066667 23.3333333,11.36 C23.3066667,11.36 23.2533333,11.36 23.2266667,11.36 C22.9066667,11.3866667 22.6133333,11.1466667 22.56,10.8266667 Z" id="Shape"></path>
                        </g>
                    </g>
                </g>
            </g>
        </g>
    </g>
</svg>